<?xml version="1.0" encoding="utf-8"?>
<!-- Generator: Adobe Illustrator 22.0.1, SVG Export Plug-In . SVG Version: 6.00 Build 0)  -->
<svg version="1.1" id="Layer_1" xmlns="http://www.w3.org/2000/svg" xmlns:xlink="http://www.w3.org/1999/xlink" x="0px" y="0px"
	 viewBox="0 0 52 53" style="enable-background:new 0 0 52 53;" xml:space="preserve">
<style type="text/css">
	.st0{fill:#E60685;}
	.st1{fill:#FFFFFF;}
</style>
<circle class="st0" cx="26.1" cy="26.5" r="24.7"/>
<path id="a_logo_icon" class="st1" d="M36,38.1h-4.5v-2.8h-0.1c-1.5,2.1-4.4,3.4-7,3.4c-3.2,0-5.8-1.3-7.6-3.4
	c-1.6-2-2.6-4.6-2.6-7.5c0-2.8,0.7-5.2,2.6-7.3c2.1-2.4,4.6-3.5,7.6-3.5c2.8,0,5.3,1.3,6.9,3.5v-2.9H36V38.1z M25.4,21.8
	c-3.6,0-6.2,2.7-6.2,6.3c0,3.4,2.7,5.9,6.1,5.9c3.6,0,6-2.6,6-6.1C31.3,24.4,28.9,21.7,25.4,21.8z"/>
</svg>
